# xmcd
#
# Track frame offsets: 
#        150
#        18433
#        36976
#        67029
#        84511
#        103080
#        123775
#        144834
#        175472
#        199464
#        214768
#        244101
#
# Disc length: 3354 seconds
#
# Revision: 0
# Processed by: cddbd v1.5.1PL2 Copyright (c) Steve Scherf et al.
# Submitted via: ExactAudioCopy v0.95b4
#
DISCID=ac0d180c
DTITLE=Piet Visser Band - Piet Visser Band
DYEAR=2003
DGENRE=Blues-Rock
TTITLE0=Pride And Joy (Stevie Ray Vaughan)
TTITLE1=I Don't Know (Mabon, Thomas)
TTITLE2=Yellow Moon (Aaron and Joel Neville)
TTITLE3=Poison Girl (Chris Whitley)
TTITLE4=Real Man (John Hiatt)
TTITLE5=Looking For Clues (R. Palmer)
TTITLE6=Playing In The Dirt (Cray, Amy)
TTITLE7=The Moon Is Full (Albert Collins)
TTITLE8=Waiting For The Tide To Turn (Cray, Vannice)
TTITLE9=Every Kinda People (Andy Fraser)
TTITLE10=Addicted To Love (R. Palmer)
TTITLE11=Jam
EXTD=
EXTT0=
EXTT1=
EXTT2=
EXTT3=
EXTT4=
EXTT5=
EXTT6=
EXTT7=
EXTT8=
EXTT9=
EXTT10=
EXTT11=
PLAYORDER=
